<?xml version="1.0" encoding="UTF-8"?>
<svg id="Capa_5" data-name="Capa 5" xmlns="http://www.w3.org/2000/svg" viewBox="0 0 2081.44 1397.96">
  <defs>
    <style>
      .cls-1, .cls-2 {
        fill: #f3ba1a;
      }

      .cls-2 {
        fill-rule: evenodd;
      }
    </style>
  </defs>
  <polygon class="cls-1" points="0 731.43 0 541.84 47.47 541.84 47.47 626.22 111.87 541.84 165.16 541.84 97.99 629.46 181.82 731.43 120.19 731.43 47.47 642.32 47.47 731.43 0 731.43"/>
  <path class="cls-2" d="M274.76,715.33c-6.38,6.52-13.05,11.24-19.89,14.2-6.85,2.91-14.76,4.39-23.69,4.39-14.06,0-24.89-4.26-32.48-12.81-7.59-8.56-11.38-20.82-11.38-36.83v-75.39c.13-2.39,2.1-5.97,6.17-5.59l29.72-.4c.78-.39,4.93,.9,4.64,5.99v69.84c0,9.16,1.48,15.82,4.4,20.03,2.91,4.21,7.5,6.29,13.74,6.29,5.55,0,10.83-1.71,15.73-5.09,4.9-3.38,9.25-8.42,13.05-15.13v-75.78c.14-2.38,3.56-6.14,5.97-6.16h30.06c2.31,.01,4.83,3.42,5.11,5.66l-.61,122.86h-40.53v-16.1h0Z"/>
  <path class="cls-1" d="M339.16,724.54v-28.64c8.14,3.7,15.68,6.57,22.58,8.61,6.94,2.04,12.72,3.05,17.44,3.05,6.43,0,11.24-.83,14.48-2.45,3.28-1.62,4.9-4.07,4.9-7.31,0-2.73-1.2-5.14-3.65-7.26-2.45-2.13-8-5-16.7-8.61-.88-.37-2.36-.93-4.35-1.76-24.61-10.18-36.92-23.27-36.92-39.28,0-12.17,4.53-21.98,13.65-29.38,9.07-7.4,21.1-11.1,36.13-11.1,8,0,15.64,.83,22.81,2.54,7.22,1.71,14.2,4.3,20.96,7.73v28.31c-8.51-4.53-16.1-7.82-22.76-9.9-6.62-2.08-12.77-3.15-18.37-3.15-4.9,0-8.65,.88-11.29,2.59-2.64,1.71-3.93,4.16-3.93,7.31,0,4.16,7.31,9.25,21.98,15.31,5.97,2.36,10.69,4.3,14.11,5.88,9.39,4.02,16.24,8.93,20.49,14.62,4.3,5.69,6.43,12.77,6.43,21.19,0,13.28-4.58,23.5-13.74,30.63-9.21,7.17-22.21,10.73-39.14,10.73-8.37,0-16.33-.79-23.92-2.36-7.54-1.62-14.57-4.02-21.19-7.31h0Z"/>
  <polygon class="cls-1" points="582.26 731.43 582.26 541.84 542.01 541.84 542.01 639.78 561.9 664.72 542.01 691.18 542.01 731.43 582.26 731.43"/>
  <polygon class="cls-1" points="489.27 731.43 539.42 664.72 490.1 602.91 441.43 602.91 491.12 664.72 440.87 731.43 489.27 731.43"/>
  <path class="cls-2" d="M729.47,733.93v-128.52h28.27c6.62,0,11.98,5.36,11.98,11.98v4.21c6.34-6.52,12.95-11.24,19.94-14.2,6.94-3.01,14.9-4.49,23.87-4.49,14.06,0,24.89,4.26,32.38,12.81,7.49,8.51,11.24,20.82,11.24,36.92v81.29h-40.53v-75.73c0-9.11-1.48-15.82-4.4-20.03-2.96-4.26-7.54-6.38-13.79-6.38-5.6,0-10.83,1.71-15.64,5.14-4.86,3.42-9.21,8.51-13.09,15.17v81.84h-40.25Z"/>
  <path class="cls-1" d="M711.91,648.56v80.9h-33.58v-14.28c-6.35,10.31-21.15,17.72-39.13,17.72-20.09,0-47.59-10.84-47.59-39.39,0-44.15,54.46-44.15,72.18-44.15h14.54c-.26-19.3-7.14-27.76-27.76-27.76-9.75,0-18.65,4.08-24.38,7.46-2.27,1.34-5.11,1.21-7.21-.39l-12.97-9.84c-3.41-2.59-3.39-7.72,.03-10.29,13.62-10.25,29.99-16.29,49.29-16.29,42.57,0,56.58,24.32,56.58,56.31Zm-33.58,21.95h-2.11c-24.06,0-50.24-.26-50.24,19.83,0,10.05,6.61,18.24,23.27,18.24s26.18-9.78,29.08-15.33v-22.74Z"/>
  <path class="cls-1" d="M991.26,647.31v80.9h-33.58v-14.28c-6.35,10.31-21.15,17.72-39.13,17.72-20.09,0-47.59-10.84-47.59-39.39,0-44.15,54.46-44.15,72.18-44.15h14.54c-.26-19.3-7.14-27.76-27.76-27.76-9.75,0-18.65,4.08-24.38,7.46-2.27,1.34-5.11,1.21-7.21-.39l-12.97-9.84c-3.41-2.59-3.39-7.72,.03-10.29,13.62-10.25,29.99-16.29,49.29-16.29,42.57,0,56.58,24.32,56.58,56.31Zm-33.58,21.95h-2.11c-24.06,0-50.24-.26-50.24,19.83,0,10.05,6.61,18.24,23.27,18.24s26.18-9.78,29.08-15.33v-22.74Z"/>
</svg>